<?xml version="1.0" encoding="utf-8"?>
<!-- Generator: Adobe Illustrator 22.1.0, SVG Export Plug-In . SVG Version: 6.00 Build 0)  -->
<svg version="1.1" id="Layer_1" xmlns="http://www.w3.org/2000/svg" xmlns:xlink="http://www.w3.org/1999/xlink" x="0px" y="0px"
	 viewBox="0 0 1000 800" enable-background="new 0 0 1000 800" xml:space="preserve">
<g id="yPjoHC.tif">
	<g>
		<path fill="#524632" d="M864.5,619.3c5.1,3.4,6.8,8.2,6.1,13.8c-0.7,5.8-4,9.8-9.5,11.8c-8.9,3.2-18.2,4.6-27.5,4.8
			c-18,0.5-36,0.4-54,0.7c-6.7,0.1-13.5,0.5-20.2,0.8c-0.1,0.3-0.2,0.6-0.3,0.9c1.1,0.8,2.2,1.6,3.3,2.2c2,1.1,4.2,2,6.1,3.3
			c5.8,4,5.1,12.5-1.4,15c-3.8,1.4-8.1,2.1-12.2,2.1c-26.2,0-52.4,0-78.6-0.5c-22.2-0.5-44.3-1.5-66.5-2.7
			c-4.1-0.2-8.5-1.6-12.2-3.4c-5.7-2.8-6.8-7.2-4.3-13c0.2-0.6,0.4-1.1,0.8-1.9c-0.8-0.1-1.5-0.3-2.1-0.3
			c-8.9-0.2-17.9-0.6-26.8-0.5c-19.8,0.1-39.5,0.6-59.3,0.6c-6.3,0-12.6-0.8-18.9-1.5c-2.1-0.2-4.2-1-6-1.9
			c-8.2-4.2-9.6-9.8-4.1-17.5c-5.3-0.5-10.4-1-15.5-1.3c-19.7-1-39.5-1.9-59.2-2.9c-18.3-0.9-36.7-0.8-54.9-3.7
			c-10.1-1.6-20-4-28.5-9.9c-2.9-2-5.7-4.5-7.7-7.3c-1.7-2.3-3.3-2.7-5.8-2.4c-10.8,1.6-21.7,2.9-32.5,4.8c-20,3.7-40,3.8-60.1,1.6
			c-14.6-1.6-29.2-3.4-43.7-5.7c-9.3-1.5-18.3-4.7-26.7-9.1c-2.3-1.2-4.4-2.6-6.4-4.2c-2.9-2.3-5-5.2-5.3-9.2
			c-0.9-12-2.1-23.9-2.8-35.9c-1.1-19.5-2.6-38.9-2.7-58.4c-0.2-33.7,0.1-67.3,0.8-101c0.2-10.4,2-20.7,3.5-31
			c1.4-9.3,6.2-17.1,12.3-24.2c10.6-12.2,21.2-24.5,31.6-36.9c3.5-4.2,6.4-8.8,9.5-13.2c3.9-5.6,5.1-12.1,5.3-18.7
			c0.1-4.5-0.1-9.1-0.1-13.6c0-12.1,0.2-24.2-0.1-36.3c-0.2-9-0.5-18-1.3-26.9c-0.3-3-1.9-6.1-3.5-8.8c-3.6-6-3.3-10.1,1.9-14.9
			c4.4-4.1,5.1-8.8,1.8-12.3c-1-1.1-2.2-2.1-3.5-2.9c-3.4-2.4-4.7-5.6-4.4-9.7c0.3-4.4,2.1-7.9,6.2-9.6c3.3-1.4,7-2.7,10.5-2.8
			c14.8-0.3,29.6-0.4,44.3-0.2c5.2,0.1,10.5,1.3,14.9,4.4c5.8,4,6.4,10.6,1.1,15c-6.2,5.2-4.6,10.6-0.4,14.8
			c0.8,0.7,1.5,1.5,2.2,2.3c4.9,5.6,4.4,12-2,15.8c-3.8,2.3-4.8,4.8-4.5,8.9c1.3,19.3,2.4,38.6,3.6,57.8c0.6,8.8,1.4,17.6,2.3,26.3
			c0.1,1.3,0.8,2.7,1.6,3.7c13.2,14.4,26.9,28.5,39.8,43.2c13.3,15.3,24.5,32.1,33,50.6c0.5,1,0.8,2.2,0.8,3.3
			c0.8,17.7,1.5,35.4,2.3,53.1c0,0.4,0.1,0.9,0.2,1.4c6.5,1.2,12.9,0.7,19.2-0.1c19.5-2.2,39.1-1.9,58.7-1.1
			c22.1,0.9,44.1,2.2,66.2,3.5c18.8,1.1,37.5,1.9,56.2,3.8c15.9,1.6,31.7,4.4,47.2,8.7c8.8,2.5,14.9,8.7,21.1,14.9
			c8.9,9.1,14.6,20.3,21,31.1c2.3,3.8,4.7,7.5,7.2,11.2c0.5,0.7,1.5,1.3,2.3,1.3c9.5-0.6,18.8,1.8,28.1,2.8
			c5.1,0.5,10.3,0.6,15.4-0.1c2.6-0.3,5.3-2.1,7.2-4c3.4-3.2,7.1-4.8,11.6-4c2.5,0.5,4.8,1.9,7.8,3.2c5.5-4.3,12.1-4.8,18.9-0.3
			c6.4,4.2,9,10.7,10.4,17.9c2.9-0.9,5.5-1.8,8.2-2.6c8.9-2.6,17.5-1,25.9,2c6.2,2.2,11.8,5.4,16.9,9.6c7.3,6,10.8,13.6,11.1,23
			c0.2,7.3,0.7,14.6,1.1,21.8c0.1,2.1,1,3.1,3.3,3.6c4,0.9,7.9,2.2,11.6,3.8c4,1.8,6.7,5,7.8,9.3c0.4,1.8,1.4,2.1,3,2.1
			c12.3,0.1,24.5,1.2,36.4,4.8c4.7,1.5,9.2,3.5,12.8,7c3.2,3.1,4.4,6.8,3.7,11.2c-0.4,2.8-2,4.9-4.6,6.2
			C868.6,617.8,866.6,618.5,864.5,619.3z M867,610c-0.6-1.1-0.8-1.6-1.1-2c-4-5.5-9.8-8-16.2-8.8c-10-1.2-20-2.1-30-2.5
			c-4.8-0.2-7.4-1.5-8.3-6.2c-1.2-5.7-4.6-8.7-10.7-8.4c-8.1,0.4-13.2-5.7-13.4-14.1c-0.1-6,0.1-11.9,0-17.9
			c-0.1-6.5-1.2-13-6.2-17.7c-14.3-13.2-34.7-19-54.3-5c-6,4.3-8.5,9.8-6.9,17.1c0.6,2.8,0.9,5.7,0.7,8.5c-0.1,1.9-1.2,3.7-1.9,5.7
			c-3.9-2.6-5.4-6-5.5-9.7c-0.1-6.3,0-12.6,0.7-18.8c0.6-6.2,1.9-12.2,3-18.3c0.1-0.7,0.5-1.4,0.8-2.1c0.2,0,0.5-0.1,0.7-0.1
			c0.6,1.2,1.2,2.4,1.8,3.6c0.7,1.4,1.2,3,2.2,4.1c0.5,0.5,2.8,0.3,2.9,0.2c0.4-2.1,1.2-4.5,0.7-6.4c-1.4-5.4-6.4-8.8-12-8.9
			c-1.7,0-2.7,0.5-3.7,2c-1.3,2-2.7,4.2-4.6,5.4c-3,1.9-7.2,2.1-7.6-3.1c0-0.4-0.2-0.9-0.3-1.3c-0.9-3.3-4-4.3-6.5-2
			c-1.1,1.1-2,2.5-2.8,3.9c-1.5,2.4-3.5,3.8-6.5,4.1c-9.2,0.7-18.3,0.5-27.4-0.9c-7.5-1.2-14.9-2.7-22.5-1.4
			c-1.4,0.2-2.8-0.1-4.2-0.3c-1.9-0.3-2.9-1.3-3.1-3.4c-0.2-1.7-0.5-3.8-1.6-4.9c-5.8-5.8-9.7-13-13.5-20.1
			c-4.9-9.1-11-17.3-18.9-23.9c-3.1-2.6-6.9-4.8-10.8-6.1c-5.8-1.9-11.9-3-17.9-4.1c-12-2.2-24-4.4-36-6.3c-4.4-0.7-8.9-0.4-13,1.9
			c-7.8,4.5-14.6,10.1-19.9,17.5c-7.4,10.4-11.8,22.1-15,34.3c-5.1,19.6-6.1,39.7-6.4,59.9c-0.2,13.1,0.3,26.2,3.2,39
			c1.9,8.4,5.6,15.4,13.3,20.1c4.2,2.5,8,5.6,12,8.4c0.6,0.4,1.4,0.6,2.2,0.7c16.3,1.8,32.5,2.3,48.7-0.3
			c16.4-2.6,31.6-8.2,43.2-20.7c5.2-5.6,10.4-11.4,14.1-17.9c3.1-5.6,6.4-10.8,10.3-15.7c4.9-6.3,11.3-8.8,19-9
			c12.9-0.4,25.8-0.9,38.7-1.7c3.9-0.2,6.1,1.1,8,4.2c1.4,2.2,3.1,4.4,5.1,6c2.8,2.2,6,1.2,8-1.7c0.9-1.2,2.1-2.3,3.2-3.5
			c1,1.3,1.7,2.3,2.4,3.1c3.2,3.5,8.6,4.7,13,2.9c3.9-1.6,5.4-4.4,5.4-10c0-0.8,0.8-1.9,1.5-2.4c10.2-7.5,28.8-3.4,32.9,9.9
			c1.7,5.7,3.5,11.4,2.3,17.5c-0.4,2.2-1.4,4-3.9,4.6c-2.2,0.5-3.1-0.2-2.9-2.4c0.1-1,0.2-2.1,0.3-3.7c-6.3,0.3-12.2,0.4-18.1,0.9
			c-3.9,0.3-3.8,0.6-3.8,4.6c0,0.8,0,1.6-0.1,2.4c-0.3,3.7-1,4.6-4.6,5c-5.7,0.7-11.5,1.2-17.2,1.8c-10.1,1.1-20.2,2.2-30.2,3.4
			c-7.1,0.8-13.5-0.1-19.3-4.8c-2.5-2-6-3.2-9.2-3.9c-4.1-0.8-8.3-0.9-12.5-1c-7.4-0.1-14.8,0.1-22.2,0.3c-1,0-2.2,0.7-2.8,1.5
			c-4.7,5.1-9.3,10.3-14,15.5c-9.6,10.4-20.8,18-34.9,20.9c-11.7,2.3-23.5,2.5-35.4,2.9c-11.7,0.4-23.4,0.5-34.7,3.7
			c-3.9,1.1-7.6,2.9-11.5,4.4c0,0.3,0.1,0.6,0.1,1c1.3,0.8,2.4,1.9,3.8,2.3c3.5,1,7.1,2.2,10.6,2.3c16.2,0.4,32.4,0.5,48.6,0.5
			c12.4-0.1,24.7-0.7,37.1-0.8c7.4-0.1,14.8,0.4,21.5,4.2c5.7,3.3,5.8,6,0.4,9.6c-1.2,0.8-2.1,2-3.7,3.5c1.5,0.4,2.1,0.6,2.7,0.6
			c23.3,1.4,46.5,3.3,69.8,4.2c23.6,0.8,47.2,0.6,70.8,0.8c4.3,0,8.5,0.4,12.8,0.3c2.8,0,5.5-0.5,8.3-2.7c-2.3-1-4.1-1.9-6-2.5
			c-3.9-1.3-7.8-2.4-11.7-3.8c-3.2-1.2-5.7-3.4-7.2-7.3c3.6-1.5,6.9-3.2,10.4-4.4c11.3-3.7,23.1-4.2,34.9-4.3
			c14.7-0.2,29.4,0.1,44.1-0.1c8.8-0.1,17.7-0.7,26.1-3.7c2.6-0.9,5-2.7,7-4.6c2.3-2.1,2-3.5-0.7-5c-1.9-1.1-4.1-1.8-6.1-2.6
			c-1.6-0.7-3.4-1.2-4.9-2.2c-3.6-2.3-3.3-7.2,0.4-9.2c1.5-0.8,3.1-1.2,4.8-1.6C858.8,611.8,862.8,610.9,867,610z M323.3,378.3
			c-0.9,0.3-1.6,0.6-2.2,0.8c-8,2.6-15.8,5.5-23.9,7.6c-18.8,4.9-38,6.9-57.4,7.4c-15.9,0.4-31.9,0.3-47.7-2.5
			c-12.8-2.3-24.9-6.8-37-11.1c-5.9-2.1-11.9-4.1-18-6.2c-0.2,0.9-0.3,1.4-0.4,1.9c-3.7,26.4-4.6,52.9-3.9,79.4
			c0.8,30.8,2.2,61.6,3.2,92.4c0.1,2.3,0.8,3.2,2.9,3.9c11.6,3.2,23.4,4.6,35.3,5.3c25.7,1.5,51.4,2.9,77.1,4.2
			c13.5,0.7,26.9,0.1,40.1-3c1.7-0.4,2.4-1,2.4-3c-0.1-12.4-0.5-24.9,0.2-37.3c1.2-20.6,5.5-40.6,13.9-59.5
			c3.5-7.9,6.7-16.1,13.2-22.1c5-4.6,6.1-10.2,5.6-16.5c-0.5-6.7-0.9-13.3-1.5-20C324.7,392.8,324,385.6,323.3,378.3z M508.1,439.6
			c-0.1-0.2-0.2-0.4-0.2-0.6c-0.9,0-1.8,0-2.6,0c-15.3-0.7-30.6-1.5-45.9-2.2c-21.8-1-43.6-2-65.4-3.2c-4.1-0.2-7.6,0.6-10.9,3.2
			c-2.5,2-5.4,3.5-8.1,5.2c-9.1,5.8-16.7,12.6-21.9,22.4c-6.9,12.8-11.6,26-12.9,40.5c-1.3,14.1-0.7,28.1,1.3,42.1
			c2,13.8,4.3,27.6,9,40.9c3.1,8.7,7.7,16,16.6,19.9c1.9,0.8,3.7,2.2,5.1,3.7c1.4,1.5,2.6,2.5,4.9,2.5c1.1,0,2.3,1.4,3.5,2.1
			c1.1,0.6,2.2,1.6,3.3,1.6c28.3-0.4,56.4,2.1,84.6,4.1c6.6,0.5,13.2,0.8,20.6,1.3c-1-0.7-1.4-1-1.8-1.3c-7.2-5.3-13-11.8-16.7-20.1
			c-3.7-8.5-4.8-17.5-5.6-26.5c-2.1-23.2-0.4-46.3,4.4-69.1c3.4-16,8.2-31.5,16.8-45.6c4.4-7.3,9.9-13.7,17.6-17.8
			C505.3,441.7,506.7,440.6,508.1,439.6z M219.5,388.8c18.5,0.2,34.6-0.5,50.6-2.6c17-2.3,33.6-6.2,49-14.1c2-1,2.7-1.9,1.6-4
			c-2.6-5.1-4.4-10.6-7.6-15.2c-7.3-10.4-15.2-20.4-22.8-30.6c-0.4-0.5-0.9-1-1.4-1.1c-4-0.3-7.1-2.7-10.3-4.7
			c-5-3.1-9.8-2.6-14.2,1.3c-1.1,1-2.2,2.1-3.3,3.1c-4.8,4.4-8.4,4.5-13.4,0.2c-2.1-1.9-4-4.1-6.2-5.9c-2.5-2-5.2-4.1-8.1-5.4
			c-3.6-1.6-8-0.9-11.1,3.1c-7.6,10.1-18.9,9.3-25.7-1.3c-0.8-1.3-1.4-2.7-2.1-4c-0.4-0.7-1-1.8-1.6-1.9c-3.6-0.8-7.3-2-10.9-1.8
			c-6.6,0.3-11.2,4.6-15.1,9.6c-7.1,9.2-14.2,18.5-21.1,27.9c-5.9,8-9.4,16.9-8.9,27.1c0.1,1.4,0.4,2.1,1.9,2.5
			c9.5,2.7,19,5.3,28.4,8.4C184.9,385.3,203,389.5,219.5,388.8z M180.9,297.8c3.3,0.5,5.6,0.9,8,1.2c6.3,0.8,11,3.7,13.4,9.9
			c0.2,0.7,0.6,1.3,0.9,1.9c2.4,4.6,6.7,5.7,10.9,2.5c1.9-1.4,3.6-3.2,5-5.1c2.5-3.4,5.9-4.7,9.9-4.9c4-0.2,7.6,1,10.7,3.5
			c3,2.5,5.7,5.3,8.6,8c4.6,4.2,7.2,4.3,11.3-0.2c4.4-4.8,9.8-6.6,16.1-6c0.9,0.1,1.8,0.1,2.7,0.2c0.2-0.3,0.4-0.6,0.6-1
			c-8.4-8.8-16.6-17.8-25.3-26.3c-3.6-3.5-5.1-7.2-5.3-12.2c-0.2-8.3-0.8-16.5-1.7-24.8c-2.2-21-4.3-42-2.4-63.2
			c0.1-1.5,0-2.5-1.6-3.2c-2-0.9-1.6-2.3-0.1-3.2c1.5-0.9,3.2-1.5,4.9-1.9c4.2-1.1,5.4-2.1,5.1-4.6c-0.3-2.4-1.4-2.9-5.8-3.3
			c-2-0.1-4-0.8-6.7-1.3c5.8-5.1,5.4-10.9,4.9-17.1c-2.1,0.5-3.8,1-5.5,1.2c-2,0.2-4.1,0.1-6-0.2c-0.7-0.1-1.3-1.3-1.7-2.1
			c-0.1-0.2,0.9-1.2,1.6-1.4c3-0.9,6-1.7,9-2.5c2.9-0.8,5.8-1.5,8.8-2.2c-1.7-4-4.7-4.4-7.9-4.6c-6.8-0.4-13.5-0.7-20.3-1.1
			c-8.5-0.4-17.1-0.9-25.6-1c-2.9,0-5.9,1.1-8.8,1.9c-3,0.9-2.3,3.6-1.9,5.6c0.2,1.1,1.7,2.3,2.9,2.7c1.7,0.7,3.7,0.6,5.5,1.1
			c1.2,0.4,2.3,1.2,3.6,2c-3.7,2.3-4.1,3-3.7,6.7c0.2,2.3,0.7,4.6,1.1,6.8c0.3,1.8-0.1,2.9-1.8,3.9c-1.5,0.9-2.9,2.3-4,3.8
			c-2.7,3.7-1.5,7.5,2.7,9.3c0.8,0.3,1.5,0.6,3.3,1.3c-4.8,1-3.7,3.8-3.4,6.4c0.7,5.7,1.6,11.5,2,17.2c1.8,24.7,1.1,49.3-1.5,73.9
			c-0.2,1.5-1,3-1.8,4.3C188.3,285.8,184.8,291.5,180.9,297.8z M365.9,616.1c-3.2-2.5-6.5-4.6-9.3-7.2c-7.1-6.7-11.5-15.3-13.9-24.6
			c-3.4-13.1-6.1-26.3-8.5-39.6c-3.5-18.7-4.3-37.4,2.5-55.7c1.5-4.1,3.3-8.2,4.7-12.4c4.8-13.5,12.4-25.2,23.5-34.4
			c4-3.3,8.5-6,12.3-8.6c-3.8,0-8-0.1-12.3,0c-10.6,0.3-21.2,0.8-31.8,1.1c-1.8,0-2.9,0.4-4,1.8c-6.5,8.4-11.7,17.7-15.8,27.5
			c-9.2,22.1-13.6,45.2-13.9,69.1c-0.2,14.4,1.5,28.4,7.1,41.8c3,7.2,5.8,14.6,8.1,22c1.3,4.1,3.5,7.1,6.9,9.4
			c2.2,1.5,4.5,2.9,7,3.9C340.5,615.2,353.1,615.8,365.9,616.1z M295.1,564.8c-1.3,0.3-3.2,0.7-5.1,1.1c-17.1,3.2-34.2,2.5-51.4,1.3
			c-18.2-1.2-36.4-2.3-54.6-3.6c-8.2-0.6-16.5-1.3-24.7-2.5c-7.5-1.1-14.8-3.1-22.4-4.7c0.2,2.9,0.5,6,0.8,9.1
			c0.6,5.4,1.5,10.8,1.7,16.2c0.1,2.5,0.9,3.8,2.9,5c10.2,5.8,21.3,9.3,32.8,11.7c14.9,3.1,30.1,4.7,45.3,5.3
			c13.2,0.5,26.3,1.1,39.5-1c10.8-1.7,21.6-3.5,32.5-5c4.9-0.7,9.8-0.9,15.2-1.3C303.4,585.9,299.3,575.6,295.1,564.8z M619.8,581.7
			c1.8,0,3.2,0,4.6,0c6.9,0,13.9-0.2,20.8,0.2c6,0.3,12.1,1.1,16.7,5.3c4,3.6,8.3,4.2,13.1,3.5c12.9-1.7,25.7-3.8,38.6-4.9
			c6-0.5,9.6-2.4,10.1-8.7c0.2-2.1,1.6-3.4,3.6-4.2c5.4-2.3,10.9-3.3,16.7-2.4c1.3,0.2,2.7,0.3,4.2,0.5c-0.5-4.2-2.4-7-5.9-8.6
			c-4.2-2-8.6-2-13.1-1.2c-0.7,0.1-1.5,1.1-1.9,1.9c-5.2,11.7-16.2,14.9-26.5,7.7c-5.5,4.4-7.6,4.5-13.5,0.5
			c-1.1-0.7-2.2-1.5-3.3-2.3c-3.3-2.6-7-3.8-11.2-3.6c-7.9,0.5-15.8,0.8-23.7,1.7c-5.7,0.7-11.4,2-16.9,3.6
			C626.9,572.3,622.5,575.7,619.8,581.7z"/>
		<path fill="#524632" d="M773.6,484.6c0.3-10.9,6.2-16.7,16-18.1c6.5-0.9,8.9,3.2,9.4,8.2c0.2,2-0.2,4.3-1,6.2
			c-2.5,6.5-7.3,10.9-13.8,13.1c-5.6,1.9-9.4-0.7-10.3-6.5C773.8,486.4,773.7,485.2,773.6,484.6z M790.9,474.5
			c-3.7-0.2-6.1,1.5-7.9,4.3c-1.4,2.3-1.7,4.7-0.2,7.2C787,483.2,791.5,480.9,790.9,474.5z"/>
		<path fill="#524632" d="M807.3,517c-6.4,0.2-8.2-1.4-8.8-6c-1.2-10,9.1-18,19.1-15.8c0.4,0.1,0.8,0.4,1.1,0.6
			c4.3,3.3,6.4,12,3.9,16.9c-0.9,1.9-2.3,3-4.5,3.2C813.9,516.3,809.7,516.8,807.3,517z M815.9,507.8c-0.4-1.8-0.8-3.4-1.2-4.8
			c-4.5-0.3-6.7,1.1-7.9,4.8C809.8,507.8,812.6,507.8,815.9,507.8z"/>
		<path fill="#524632" d="M842,562.1c-6.5,0-10.4-4.3-10.4-11.3c0.1-6.6,4.6-11.6,10.7-11.7c6,0,10.2,5,10.2,12
			C852.5,557.7,848.2,562.1,842,562.1z M841.3,547.3c-1,1.4-2.2,2.4-2,2.9c0.5,1.3,1.4,3,2.5,3.4c1.4,0.5,3.4-0.6,3-2.4
			C844.5,550,842.8,549,841.3,547.3z"/>
		<path fill="#E4B82F" d="M860.7,628.3c-1.9-1.1-4.1-1.8-6.1-2.6c-1.6-0.7-3.4-1.2-4.9-2.2c-3.6-2.3-3.3-7.2,0.4-9.2
			c1.5-0.8,3.1-1.2,4.8-1.6c3.9-1,7.9-1.8,12.1-2.8c-0.6-1.1-0.8-1.6-1.1-2c-4-5.5-9.8-8-16.2-8.8c-10-1.2-20-2.1-30-2.5
			c-4.8-0.2-7.4-1.5-8.3-6.2c-1.2-5.7-4.6-8.7-10.7-8.4c-8.1,0.4-13.2-5.7-13.4-14.1c-0.1-6,0.1-11.9,0-17.9
			c-0.1-6.5-1.2-13-6.2-17.7c-14.3-13.2-34.7-19-54.3-5c-6,4.3-8.5,9.8-6.9,17.1c0.6,2.8,0.9,5.7,0.7,8.5c-0.1,1.4-0.7,2.8-1.4,4.3
			c0.9,0.3,1.4-0.5,2.3-0.6c0.2-0.7,0.9-1.5,1.5-2c10.2-7.5,28.8-3.4,32.9,9.9c1.7,5.7,3.5,11.4,2.3,17.5c-0.4,2.2-1.4,4-3.9,4.6
			c-2.2,0.5-3.1-0.2-2.9-2.4c0.1-1,0.2-2.1,0.3-3.7c-6.3,0.3-12.2,0.4-18.1,0.9c-3.9,0.3-3.8,0.6-3.8,4.6c0,0.8,0,1.6-0.1,2.4
			c-0.3,3.7-1,4.6-4.6,5c-5.7,0.7-11.5,1.2-17.2,1.8c-10.1,1.1-20.2,2.2-30.2,3.4c-7.1,0.8-13.5-0.1-19.3-4.8c-2.5-2-6-3.2-9.2-3.9
			c-4.1-0.8-8.3-0.9-12.5-1c-7.4-0.1-14.8,0.1-22.2,0.3c-1,0-2.2,0.7-2.8,1.5c-4.7,5.1-9.3,10.3-14,15.5
			c-9.6,10.4-20.8,18-34.9,20.9c-11.7,2.3-23.5,2.5-35.4,2.9c-11.7,0.4-23.4,0.5-34.7,3.7c-3.9,1.1-7.6,2.9-11.5,4.4
			c0,0.3,0.1,0.6,0.1,1c1.3,0.8,2.4,1.9,3.8,2.3c3.5,1,7.1,2.2,10.6,2.3c16.2,0.4,32.4,0.5,48.6,0.5c12.4-0.1,24.7-0.7,37.1-0.8
			c7.4-0.1,14.8,0.4,21.5,4.2c5.7,3.3,5.8,6,0.4,9.6c-1.2,0.8-2.1,2-3.7,3.5c1.5,0.4,2.1,0.6,2.7,0.6c23.3,1.4,46.5,3.3,69.8,4.2
			c23.6,0.8,47.2,0.6,70.8,0.8c4.3,0,8.5,0.4,12.8,0.3c2.8,0,5.5-0.5,8.3-2.7c-2.3-1-4.1-1.9-6-2.5c-3.9-1.3-7.8-2.4-11.7-3.8
			c-3.2-1.2-5.7-3.4-7.2-7.3c3.6-1.5,6.9-3.2,10.4-4.4c11.3-3.7,23.1-4.2,34.9-4.3c14.7-0.2,29.4,0.1,44.1-0.1
			c8.8-0.1,17.7-0.7,26.1-3.7c2.6-0.9,5-2.7,7-4.6C863.7,631.2,863.4,629.9,860.7,628.3z"/>
		<path fill="#E4B82F" d="M698.1,530.7c0.2,1.4,0.4,2.7,0.7,4.1c1.2,5.7,3.4,11.1,5.2,16.7c-2.8-0.4-5.2-1.9-6.8-4.6
			c-1.9-3-3.3-6.1-3.9-9.7c-0.6-3.3-0.6-6.5-0.2-9.6c-6-4-11.8-8.1-19-8.7c-39-3.7-74.8-13.9-105.8-38.5
			c-20.8-16.8-43.6-27-68.1-29.5c-2.6,2.5-5,5.2-7.2,8.2c-7.4,10.4-11.8,22.1-15,34.3c-5.1,19.6-6.1,39.7-6.4,59.9
			c-0.2,13.1,0.3,26.2,3.2,39c1.9,8.4,5.6,15.4,13.3,20.1c4.2,2.5,8,5.6,12,8.4c0.6,0.4,1.4,0.6,2.2,0.7c16.3,1.8,32.5,2.3,48.7-0.3
			c16.4-2.6,31.6-8.2,43.2-20.7c5.2-5.6,10.4-11.4,14.1-17.9c3.1-5.6,6.4-10.8,10.3-15.7c4.9-6.3,11.3-8.8,19-9
			c12.9-0.4,25.8-0.9,38.7-1.7c3.9-0.2,6.1,1.1,8,4.2c1.4,2.2,3.1,4.4,5.1,6c2.8,2.2,6,1.2,8-1.7c0.9-1.2,2.1-2.3,3.2-3.5
			c1,1.3,1.7,2.3,2.4,3.1c3.2,3.5,8.6,4.7,13,2.9c3.9-1.6,5.4-4.4,5.4-10l-2.8,1.6c-3.9-2.6-5.4-6-5.5-9.7c-0.1-4.6,0-9.3,0.3-14
			c-2.2,0-4.5-0.4-6.7-0.7C703.5,533.5,700.7,532.2,698.1,530.7z"/>
		<path opacity="0.64" fill="#E6E6E6" d="M725.8,511c-1.4-5.4-6.4-8.8-12-8.9c-1.7,0-2.7,0.5-3.7,2c-1.3,2-2.7,4.2-4.6,5.4
			c-3,1.9-7.2,2.1-7.6-3.1c0-0.4-0.2-0.9-0.3-1.3c-0.9-3.3-4-4.3-6.5-2c-1.1,1.1-2,2.5-2.8,3.9c-1.5,2.4-3.5,3.8-6.5,4.1
			c-9.2,0.7-18.3,0.5-27.4-0.9c-7.5-1.2-14.9-2.7-22.5-1.4c-1.4,0.2-2.8-0.1-4.2-0.3c-1.9-0.3-2.9-1.3-3.1-3.4
			c-0.2-1.7-0.5-3.8-1.6-4.9c-5.8-5.8-9.7-13-13.5-20.1c-4.9-9.1-11-17.3-18.9-23.9c-3.1-2.6-6.9-4.8-10.8-6.1
			c-5.8-1.9-11.9-3-17.9-4.1c-12-2.2-24-4.4-36-6.3c-4.4-0.7-8.9-0.4-13,1.9c-4.6,2.7-8.9,5.7-12.7,9.3
			c24.5,2.5,47.3,12.7,68.1,29.5c31,24.6,66.8,34.7,105.8,38.5c7.2,0.6,13,4.8,19,8.7c0.3-2.7,1-5.3,1.9-8c0.2-0.6,0.6-1.2,1-1.8
			c0.3,0,0.6,0,0.9,0c0.5,4.3,0.7,8.7,1.4,13c2.7,1.5,5.5,2.8,8.5,3.6c2.2,0.4,4.5,0.7,6.7,0.7c0.1-1.6,0.2-3.3,0.4-4.9
			c0.6-6.2,1.9-12.2,3-18.3c0.1-0.7,0.5-1.4,0.8-2.1c0.2,0,0.5-0.1,0.7-0.1c0.6,1.2,1.2,2.4,1.8,3.6c0.7,1.4,1.2,3,2.2,4.1
			c0.5,0.5,2.8,0.3,2.9,0.2C725.5,515.3,726.3,513,725.8,511z"/>
		<path fill="#C7B299" d="M323.3,378.3c0.7,7.4,1.4,14.5,2,21.7c0.6,6.7,1,13.3,1.5,20c0.5,6.3-0.6,11.9-5.6,16.5
			c-6.5,6-9.7,14.2-13.2,22.1c-8.4,18.9-12.7,38.9-13.9,59.5c-0.7,12.4-0.3,24.9-0.2,37.3c0,2-0.7,2.6-2.4,3
			c-13.2,3.1-26.6,3.7-40.1,3c-25.7-1.2-51.4-2.7-77.1-4.2c-11.9-0.7-23.8-2.1-35.3-5.3c-2.2-0.6-2.8-1.6-2.9-3.9
			c-1-30.8-2.4-61.6-3.2-92.4c-0.7-26.6,0.2-53.1,3.9-79.4c0.1-0.5,0.2-1,0.4-1.9c6.1,2.1,12.1,4.1,18,6.2
			c12.1,4.4,24.3,8.8,37,11.1c15.8,2.8,31.7,3,47.7,2.5c19.4-0.5,38.6-2.6,57.4-7.4c8.1-2.1,15.9-5,23.9-7.6
			C321.7,378.8,322.4,378.6,323.3,378.3z"/>
		<path fill="#C7B299" d="M508.1,439.6c-1.4,1-2.8,2.1-4.4,2.9c-7.7,4.1-13.2,10.5-17.6,17.8c-8.6,14.1-13.4,29.6-16.8,45.6
			c-4.8,22.8-6.5,45.8-4.4,69.1c0.8,9.1,1.9,18.1,5.6,26.5c3.7,8.3,9.5,14.8,16.7,20.1c0.4,0.3,0.8,0.6,1.8,1.3
			c-7.3-0.5-14-0.8-20.6-1.3c-28.2-2-56.3-4.5-84.6-4.1c-1.1,0-2.2-1-3.3-1.6c-1.2-0.7-2.3-2.1-3.5-2.1c-2.3,0.1-3.4-1-4.9-2.5
			c-1.5-1.5-3.2-2.9-5.1-3.7c-8.9-3.9-13.5-11.2-16.6-19.9c-4.7-13.2-7-27-9-40.9c-2-14-2.7-28-1.3-42.1
			c1.4-14.5,6.1-27.7,12.9-40.5c5.3-9.8,12.9-16.6,21.9-22.4c2.7-1.7,5.6-3.2,8.1-5.2c3.3-2.6,6.8-3.4,10.9-3.2
			c21.8,1.1,43.6,2.1,65.4,3.2c15.3,0.7,30.6,1.5,45.9,2.2c0.9,0,1.8,0,2.6,0C508,439.2,508,439.4,508.1,439.6z"/>
		<path fill="#E4B82F" d="M219.5,388.8c-16.5,0.8-34.5-3.5-52.3-9.4c-9.4-3.1-18.9-5.7-28.4-8.4c-1.6-0.4-1.9-1.1-1.9-2.5
			c-0.5-10.2,3-19.1,8.9-27.1c6.9-9.4,13.9-18.7,21.1-27.9c3.8-4.9,8.5-9.2,15.1-9.6c3.6-0.2,7.3,1,10.9,1.8
			c0.7,0.1,1.2,1.2,1.6,1.9c0.8,1.3,1.3,2.7,2.1,4c6.8,10.7,18.1,11.4,25.7,1.3c3-4,7.5-4.7,11.1-3.1c2.9,1.3,5.6,3.4,8.1,5.4
			c2.2,1.8,4,4,6.2,5.9c5,4.3,8.6,4.2,13.4-0.2c1.1-1,2.2-2.1,3.3-3.1c4.4-3.9,9.2-4.4,14.2-1.3c3.2,2,6.3,4.4,10.3,4.7
			c0.5,0,1.1,0.6,1.4,1.1c7.7,10.1,15.6,20.1,22.8,30.6c3.2,4.6,5.1,10.1,7.6,15.2c1.1,2.1,0.4,3-1.6,4c-15.4,7.9-32,11.8-49,14.1
			C254.1,388.3,238,388.9,219.5,388.8z"/>
		<path fill="#C69C6D" d="M180.9,297.8c3.8-6.3,7.4-12,10.8-17.8c0.8-1.3,1.6-2.8,1.8-4.3c2.6-24.6,3.3-49.2,1.5-73.9
			c-0.4-5.8-1.2-11.5-2-17.2c-0.3-2.6-1.4-5.4,3.4-6.4c-1.7-0.7-2.5-1-3.3-1.3c-4.2-1.8-5.4-5.5-2.7-9.3c1.1-1.5,2.5-2.9,4-3.8
			c1.7-1,2.1-2.2,1.8-3.9c-0.4-2.3-0.9-4.5-1.1-6.8c-0.4-3.7,0-4.4,3.7-6.7c-1.4-0.8-2.4-1.7-3.6-2c-1.8-0.5-3.8-0.4-5.5-1.1
			c-1.2-0.5-2.8-1.7-2.9-2.7c-0.3-2-1.1-4.7,1.9-5.6c2.9-0.8,5.8-2,8.8-1.9c8.5,0.1,17.1,0.6,25.6,1c6.8,0.3,13.5,0.7,20.3,1.1
			c3.2,0.2,6.2,0.6,7.9,4.6c-3,0.8-5.9,1.5-8.8,2.2c-3,0.8-6,1.6-9,2.5c-0.6,0.2-1.7,1.2-1.6,1.4c0.3,0.8,1,2,1.7,2.1
			c2,0.3,4,0.4,6,0.2c1.7-0.1,3.4-0.7,5.5-1.2c0.5,6.2,0.9,12-4.9,17.1c2.7,0.6,4.7,1.2,6.7,1.3c4.4,0.3,5.5,0.8,5.8,3.3
			c0.3,2.5-1,3.5-5.1,4.6c-1.7,0.4-3.4,1-4.9,1.9c-1.5,0.9-1.9,2.3,0.1,3.2c1.6,0.7,1.7,1.7,1.6,3.2c-1.9,21.2,0.2,42.2,2.4,63.2
			c0.9,8.2,1.4,16.5,1.7,24.8c0.1,4.9,1.6,8.6,5.3,12.2c8.7,8.5,16.9,17.5,25.3,26.3c-0.2,0.3-0.4,0.6-0.6,1
			c-0.9-0.1-1.8-0.1-2.7-0.2c-6.3-0.5-11.7,1.2-16.1,6c-4,4.5-6.7,4.4-11.3,0.2c-2.9-2.6-5.6-5.5-8.6-8c-3-2.5-6.7-3.7-10.7-3.5
			c-4,0.2-7.4,1.5-9.9,4.9c-1.4,1.9-3.1,3.7-5,5.1c-4.2,3.1-8.5,2-10.9-2.5c-0.3-0.6-0.7-1.3-0.9-1.9c-2.3-6.2-7-9.1-13.4-9.9
			C186.6,298.7,184.2,298.3,180.9,297.8z M204.3,162.6c-0.1,0.3-0.2,0.6-0.2,0.9c2.9,4.5,7.7,5.5,12.7,5.9c4.6,0.3,9.2,0.2,13-4.5
			C220.7,164,212.5,163.3,204.3,162.6z M207.3,181.6c0,0.3-0.1,0.6-0.1,0.9c3.1,4.5,16,5.3,21.7,0.6
			C221.2,182.7,214.3,182.2,207.3,181.6z M224.8,147.7c-3.4-3.9-11.2-4.9-14.8-2C214.5,149.1,219.3,148.8,224.8,147.7z"/>
		<path fill="#E4B82F" d="M365.9,616.1c-12.8-0.2-25.4-0.9-37.4-5.9c-2.4-1-4.8-2.4-7-3.9c-3.4-2.3-5.6-5.3-6.9-9.4
			c-2.3-7.5-5.1-14.8-8.1-22c-5.6-13.4-7.3-27.4-7.1-41.8c0.3-23.9,4.7-47,13.9-69.1c4.1-9.8,9.2-19,15.8-27.5
			c1.1-1.4,2.2-1.8,4-1.8c10.6-0.3,21.2-0.8,31.8-1.1c4.2-0.1,8.5,0,12.3,0c-3.8,2.7-8.3,5.3-12.3,8.6
			c-11.1,9.2-18.6,20.9-23.5,34.4c-1.5,4.2-3.2,8.2-4.7,12.4c-6.8,18.3-6,37-2.5,55.7c2.5,13.3,5.2,26.5,8.5,39.6
			c2.4,9.3,6.8,17.9,13.9,24.6C359.4,611.5,362.7,613.6,365.9,616.1z"/>
		<path fill="#E4B82F" d="M295.1,564.8c4.2,10.7,8.3,21,12.4,31.5c-5.3,0.5-10.3,0.7-15.2,1.3c-10.8,1.5-21.6,3.3-32.5,5
			c-13.1,2.1-26.3,1.5-39.5,1c-15.2-0.6-30.4-2.1-45.3-5.3c-11.4-2.4-22.5-5.9-32.8-11.7c-2.1-1.2-2.8-2.4-2.9-5
			c-0.2-5.4-1.2-10.8-1.7-16.2c-0.3-3.1-0.5-6.2-0.8-9.1c7.6,1.6,14.9,3.6,22.4,4.7c8.2,1.2,16.4,2,24.7,2.5
			c18.2,1.3,36.4,2.4,54.6,3.6c17.2,1.2,34.3,1.9,51.4-1.3C291.9,565.5,293.8,565.1,295.1,564.8z"/>
		<path fill="#E4B82F" d="M790.9,474.5c0.7,6.4-3.9,8.7-8,11.5c-1.5-2.5-1.2-5,0.2-7.2C784.7,476,787.2,474.3,790.9,474.5z"/>
		<path fill="#E4B82F" d="M815.9,507.8c-3.3,0-6.2,0-9.1,0c1.2-3.8,3.4-5.2,7.9-4.8C815.1,504.5,815.5,506,815.9,507.8z"/>
		<path fill="#E4B82F" d="M841.3,547.3c1.6,1.7,3.2,2.7,3.5,4c0.4,1.8-1.6,2.9-3,2.4c-1.1-0.4-2-2.1-2.5-3.4
			C839.1,549.7,840.3,548.7,841.3,547.3z"/>
		<path fill="#524632" d="M696.7,517.7c0.7,5.7,0.9,11.5,2.1,17.1c1.2,5.7,3.4,11.1,5.2,16.7c-2.8-0.4-5.2-1.9-6.8-4.6
			c-1.9-3-3.3-6.1-3.9-9.7c-1-6.1-0.4-11.8,1.7-17.5c0.2-0.6,0.6-1.2,1-1.8C696.1,517.7,696.4,517.7,696.7,517.7z"/>
		<path fill="#524632" d="M204.3,162.6c8.2,0.7,16.5,1.5,25.4,2.2c-3.8,4.7-8.4,4.9-13,4.5c-5-0.4-9.7-1.4-12.7-5.9
			C204.1,163.1,204.2,162.8,204.3,162.6z"/>
		<path fill="#524632" d="M207.3,181.6c7,0.5,13.9,1,21.6,1.6c-5.7,4.7-18.6,3.9-21.7-0.6C207.2,182.3,207.2,182,207.3,181.6z"/>
		<path fill="#524632" d="M224.8,147.7c-5.4,1.1-10.3,1.4-14.8-2C213.5,142.8,221.3,143.8,224.8,147.7z"/>
	</g>
</g>
</svg>
