<?xml version="1.0" encoding="utf-8"?>
<!-- Generator: Adobe Illustrator 22.1.0, SVG Export Plug-In . SVG Version: 6.00 Build 0)  -->
<svg version="1.1" id="Layer_1" xmlns="http://www.w3.org/2000/svg" xmlns:xlink="http://www.w3.org/1999/xlink" x="0px" y="0px"
	 viewBox="0 0 1000 800" enable-background="new 0 0 1000 800" xml:space="preserve">
<g>
	<path fill="#474747" d="M1825.7,411.1c-8.1-6.3-16.5-11.9-23.7-18.6c-17.9-17-27.5-38-29.4-62.8c-1.7-22.9,4.1-43.4,16.4-62.6
		c9.7-15.2,23.6-25.1,38.9-33.6c2-1.1,4-2.9,4.9-4.9c7.5-16.8,18.3-31,33.7-41.5c12.4-8.4,26-13.3,41.1-15
		c24.3-2.7,45.7,4.1,65.2,18.4c1.6,1.2,4.6,0.4,6.9,0.7c6.8,0.9,10.8-2.9,15-7.5c15.8-17.2,35.5-26.9,59-29.6
		c24.5-2.8,46.1,4,66.1,17.6c1.6,1.1,3.5,1.9,5.4,2.3c7.7,1.8,15.7,2.6,23.1,5.3c5.5,2,10.1,1.8,15.5,0.6
		c32.7-7.6,60.5,1.8,84.1,24.9c0.6,0.6,1.2,1.2,1.6,1.9c4,6.6,9.3,9,17.6,10c22,2.5,40.4,13.1,54.6,30.2
		c15.2,18.3,22.1,39.6,20,63.2c-1.9,22.1-10.1,41.7-27.4,56.5c-1.1,1-2,2.1-4.1,4.2c5.8,0,10.6,0,15.5,0c19.3,0,38.7-0.1,58,0.2
		c10.3,0.2,20.5,1.8,29.7,6.9c9.4,5.2,14,14.1,16.3,23.9c2.1,8.8,3.5,17.9,3.8,27c0.9,26.4,1,52.9,1.5,79.3
		c0.2,9.6,0.9,19.3,0.7,28.9c-0.2,9.3-1,18.5-2,27.7c-1.7,15.7-10.5,27.1-23.2,35.4c-20.2,13.2-40.8,25.9-61.3,38.6
		c-7.9,4.9-16,9.7-24.4,13.8c-13.5,6.6-27.6,11.9-40.7,19.1c-6.1,3.3-10.7,9.6-15.8,14.7c-7,6.9-13.9,13.8-20.8,20.8
		c-4.4,4.5-8.5,9.2-12.9,13.6c-11.6,11.6-23.3,23.2-34.9,34.8c-40.3,40.3-80.7,80.7-121,121.1c-5.2,5.2-5.2,5.3-10.4,0.2
		c-56.9-56.9-113.9-113.7-170.5-170.7c-12.9-13-25.2-26.6-36.9-40.7c-13.1-15.8-22.5-33.9-30.8-52.6c-8.3-18.7-14-38.2-17.7-58.3
		c-1.8-9.5-1.6-19.3-2.4-29c-0.3-3.8-1-7.6-1-11.3c-0.1-10.6-0.9-21.3,0.4-31.8c1.9-14.9,5-29.7,8.3-44.4
		C1819.6,428.7,1823,419.7,1825.7,411.1z M1886.8,426.9c-0.6,1-1.2,1.8-1.6,2.7c-5.8,15.4-10.3,31-12.9,47.4
		c-3.7,22.5-3.1,44.8,0.9,67.1c4.1,23.2,12,45.2,24.2,65.3c32.7,53.9,80.1,87.2,142.4,98.2c25.9,4.6,51.8,3.7,77.4-2
		c30.8-6.9,58.9-20.1,83.3-40.3c47.2-39,72.4-89.2,75.5-150.3c1-20.4-1.5-40.4-6.8-60.3c-6.6-24.7-17.3-47.1-32.5-67.6
		c-0.9-1.2-2.4-2.2-3.8-2.6c-19.5-5.7-35.3-16.5-47.3-32.9c-1-1.4-3.2-2.6-5-2.8c-11.4-0.8-22.4-3.1-32.6-8.4
		c-6.3-3.3-11.7-8.7-18.2-10.7c-6.6-2-14.2-1-21.3-1c-2.2,0-4.5,0.5-6.7,1.1c-7.9,2.2-15.8,4.9-23.8,6.8c-3.2,0.8-4.4,1.8-4.5,5.1
		c-0.6,17.4-6.1,33.1-16.7,47c-11.1,14.6-25.3,24.5-42.9,29.8c-1.9,0.6-4.9,2.4-4.9,3.7c-0.3,10.8,0,21.6-0.1,32.5
		c-0.1,8.1,0.6,16.3-1,24.1c-5.5,27.5-35.6,47-65.6,38.4c-21.8-6.3-38.3-27.2-38.4-50.2c0-9.6,1-19.2,1.3-28.8
		c0.1-1.7-0.7-4.6-1.9-5.1C1898.3,430.9,1892.8,429.1,1886.8,426.9z M2162.9,250.4c-2.7-21.2-14.5-34.9-34.8-39
		c-18.8-3.8-35.2,1.9-46.5,20.6c1.5-11.9,6.6-20.2,14.3-26.7c3.4-2.9,2.5-4.2-0.5-5.7c-5.2-2.5-10.3-5.2-15.8-7
		c-22-7.5-49,2-62.5,21.3c-2.8,4-1.8,6.1,1,9c5.9,5.9,9.9,12.9,12,21.7c-26.9-27.4-66.5-19.7-83.4,8.1c0.2-9.3,3.7-16.8,8.5-23.7
		c1.5-2.2,1.9-3.9-0.5-5.5c-6.3-4.1-12.2-9.5-19.2-11.9c-20.4-7.2-39.2-3-55.4,11.4c-6.1,5.5-10.9,12.1-13.1,20.3
		c15.2,5.5,29.5,16.4,32.2,24.5c-25.4-12.8-54.7-7.5-73.8,12.4c-17.9,18.7-22.1,47.8-9.1,71.9c11.8,21.8,35.8,33.6,55.6,31.5
		c1-9.6,2.1-19.1,3.1-28.7c0.7,0,1.3-0.1,2-0.1c1.2,15.6,7.3,28.5,19.7,38c12.4,9.4,26.6,11.8,42,8.9c0,22.2-0.1,43.7,0,65.1
		c0,10.8,7.3,17.6,18.4,17.5c10.9,0,17.7-6.8,17.8-17.6c0-24.8,0-49.7,0-74.5c0-1.8,0-3.6,0-5.9c2.4,0.5,4.3,1.3,6.3,1.3
		c6.9,0,14.2,1,20.8-0.5c30.9-7.2,48.9-43.9,31.1-73.5c-0.7-1.1-0.7-3.1-0.2-4.3c1.7-3.4,3.8-6.5,5.9-9.8c0.6,0.1,1.2,0.3,1.8,0.5
		c20.3,7.5,39.6,6.4,57.5-6.8c1-0.7,2.9-0.9,4.1-0.5c11.7,4.9,23.2,4.8,34.7-0.4c2.8-1.3,4.2-0.7,6.3,2.1c7.1,9.4,16.3,16,28.1,19.1
		c10.5,2.8,20.4,1.9,30.3-1.4c2.6-0.8,3.6-0.3,4.2,2.3c0.7,3,1.7,6,2.9,8.9c12.4,29.7,50,39.1,75,20.9
		c22.1-16.1,28.3-43.2,14.6-66.8c-9.8-16.9-25.4-25.4-45.4-24.8c-2.9,0.1-4.2,1.1-5.1,4.1c-1.6,6-3.4,12.1-6.3,17.6
		c-2.6,4.8-6.9,8.7-10.5,13c-1-1.3-1.1-1.9-0.9-2.3c6.4-13,6.1-26.2,0.5-39.4c-5-11.9-13.4-20.6-24.8-26.4c-13.9-7-28-6.8-42.3-0.9
		c-2.2,0.9-3.1,2-1.9,4.5C2165.9,231.5,2165.3,240.8,2162.9,250.4z M2322.1,598.6c3.4-1.6,6.2-2.6,8.7-4.1
		c15.4-9.2,30.4-18.9,46.1-27.5c9.7-5.3,12.8-12.6,12.4-23.1c-0.8-20.8-0.8-41.6-1.3-62.3c-0.3-15.8-0.4-31.6-1.2-47.4
		c-0.7-12.8-4.7-16.3-17.4-16.5c-11.8-0.2-23.6-0.1-35.5-0.1c-3.6,0-7.2,0-11.2,0C2343.4,478.1,2343,538,2322.1,598.6z"/>
	<path fill="#FFFFFF" d="M1886.8,426.9c5.9,2.2,11.4,4,16.6,6.4c1.2,0.5,1.9,3.4,1.9,5.1c-0.3,9.6-1.3,19.2-1.3,28.8
		c0.1,23,16.6,44,38.4,50.2c30,8.6,60.1-10.9,65.6-38.4c1.6-7.8,0.9-16.1,1-24.1c0.1-10.8-0.3-21.7,0.1-32.5c0-1.3,3-3.1,4.9-3.7
		c17.6-5.2,31.9-15.2,42.9-29.8c10.5-13.9,16.1-29.6,16.7-47c0.1-3.4,1.3-4.3,4.5-5.1c8-1.9,15.8-4.6,23.8-6.8
		c2.2-0.6,4.4-1.2,6.7-1.1c7.2,0.1,14.7-1,21.3,1c6.6,2,12,7.4,18.2,10.7c10.1,5.3,21.2,7.5,32.6,8.4c1.7,0.1,3.9,1.4,5,2.8
		c12,16.4,27.8,27.2,47.3,32.9c1.4,0.4,2.9,1.4,3.8,2.6c15.2,20.4,25.9,42.9,32.5,67.6c5.3,19.8,7.8,39.9,6.8,60.3
		c-3.1,61.1-28.3,111.3-75.5,150.3c-24.4,20.2-52.5,33.4-83.3,40.3c-25.6,5.7-51.5,6.6-77.4,2c-62.3-11.1-109.7-44.3-142.4-98.2
		c-12.2-20.1-20.1-42.2-24.2-65.3c-4-22.2-4.6-44.5-0.9-67.1c2.7-16.3,7.1-32,12.9-47.4C1885.6,428.7,1886.3,427.9,1886.8,426.9z"/>
	<path fill="#FFFFFF" d="M2162.9,250.4c2.4-9.5,3-18.8-1.2-27.8c-1.2-2.5-0.3-3.6,1.9-4.5c14.2-5.9,28.4-6.1,42.3,0.9
		c11.4,5.8,19.8,14.5,24.8,26.4c5.6,13.2,5.9,26.3-0.5,39.4c-0.2,0.4-0.1,1,0.9,2.3c3.6-4.3,7.9-8.2,10.5-13
		c2.9-5.4,4.7-11.6,6.3-17.6c0.8-3,2.2-4,5.1-4.1c20-0.6,35.5,7.9,45.4,24.8c13.7,23.6,7.5,50.7-14.6,66.8
		c-25.1,18.2-62.6,8.9-75-20.9c-1.2-2.9-2.2-5.8-2.9-8.9c-0.6-2.6-1.6-3.1-4.2-2.3c-10,3.3-19.9,4.1-30.3,1.4
		c-11.8-3.1-21-9.7-28.1-19.1c-2.1-2.8-3.5-3.3-6.3-2.1c-11.5,5.2-23,5.3-34.7,0.4c-1.1-0.5-3.1-0.2-4.1,0.5
		c-17.9,13.3-37.1,14.3-57.5,6.8c-0.6-0.2-1.3-0.3-1.8-0.5c-2.1,3.4-4.2,6.5-5.9,9.8c-0.6,1.1-0.5,3.2,0.2,4.3
		c17.8,29.6-0.2,66.3-31.1,73.5c-6.6,1.5-13.8,0.5-20.8,0.5c-1.9,0-3.8-0.8-6.3-1.3c0,2.3,0,4.1,0,5.9c0,24.8,0,49.7,0,74.5
		c0,10.8-6.8,17.5-17.8,17.6c-11.1,0-18.4-6.7-18.4-17.5c-0.1-21.5,0-42.9,0-65.1c-15.4,2.9-29.6,0.5-42-8.9
		c-12.4-9.5-18.5-22.4-19.7-38c-0.7,0-1.3,0.1-2,0.1c-1,9.5-2.1,19.1-3.1,28.7c-19.7,2.1-43.8-9.7-55.6-31.5
		c-13-24.1-8.9-53.2,9.1-71.9c19.1-19.9,48.4-25.2,73.8-12.4c-2.7-8.1-17-19-32.2-24.5c2.2-8.2,7-14.8,13.1-20.3
		c16.2-14.5,35-18.6,55.4-11.4c6.9,2.4,12.8,7.8,19.2,11.9c2.3,1.5,2,3.3,0.5,5.5c-4.8,6.9-8.4,14.4-8.5,23.7
		c17-27.7,56.5-35.5,83.4-8.1c-2.1-8.8-6.1-15.8-12-21.7c-2.9-2.9-3.8-5-1-9c13.5-19.3,40.5-28.8,62.5-21.3c5.4,1.8,10.6,4.5,15.8,7
		c3,1.5,3.9,2.8,0.5,5.7c-7.7,6.5-12.8,14.9-14.3,26.7c11.3-18.7,27.7-24.4,46.5-20.6C2148.4,215.5,2160.2,229.2,2162.9,250.4z"/>
	<path fill="#FFFFFF" d="M2322.1,598.6c20.9-60.6,21.3-120.5,0.6-181c4,0,7.6,0,11.2,0c11.8,0,23.6-0.1,35.5,0.1
		c12.7,0.2,16.7,3.7,17.4,16.5c0.8,15.8,0.9,31.6,1.2,47.4c0.4,20.8,0.4,41.6,1.3,62.3c0.4,10.5-2.7,17.8-12.4,23.1
		c-15.7,8.6-30.7,18.3-46.1,27.5C2328.3,596,2325.5,597,2322.1,598.6z"/>
</g>
<rect x="-466" y="1087" fill="#E4B82F" width="501" height="249"/>
<g>
	<g>
		<path fill="#524632" d="M221.6,294.1c-8.1-6.3-16.5-11.9-23.7-18.6c-17.9-17-27.5-38-29.4-62.8c-1.7-22.9,4.1-43.4,16.4-62.6
			c9.7-15.2,23.6-25.1,38.9-33.6c2-1.1,4-2.9,4.9-4.9c7.5-16.8,18.3-31,33.7-41.5c12.4-8.4,26-13.3,41.1-15
			c24.3-2.7,45.7,4.1,65.2,18.4c1.6,1.2,4.6,0.4,6.9,0.7c6.8,0.9,10.8-2.9,15-7.5c15.8-17.2,35.5-26.9,59-29.6
			c24.5-2.8,46.1,4,66.1,17.6c1.6,1.1,3.5,1.9,5.4,2.3c7.7,1.8,15.7,2.6,23.1,5.3c5.5,2,10.1,1.8,15.5,0.6
			c32.7-7.6,60.5,1.8,84.1,24.9c0.6,0.6,1.2,1.2,1.6,1.9c4,6.6,9.3,9,17.6,10c22,2.5,40.4,13.1,54.6,30.2
			c15.2,18.3,22.1,39.6,20,63.2c-1.9,22.1-10.1,41.7-27.4,56.5c-1.1,1-2,2.1-4.1,4.2c5.8,0,10.6,0,15.5,0c19.3,0,38.7-0.1,58,0.2
			c10.3,0.2,20.5,1.8,29.7,6.9c9.4,5.2,14,14.1,16.3,23.9c2.1,8.8,3.5,17.9,3.8,27c0.9,26.4,1,52.9,1.5,79.3
			c0.2,9.6,0.9,19.3,0.7,28.9c-0.2,9.3-1,18.5-2,27.7c-1.7,15.7-10.5,27.1-23.2,35.4c-20.2,13.2-40.8,25.9-61.3,38.6
			c-7.9,4.9-16,9.7-24.4,13.8c-13.5,6.6-27.6,11.9-40.7,19.1c-6.1,3.3-10.7,9.6-15.8,14.7c-7,6.9-13.9,13.8-20.8,20.8
			c-4.4,4.5-8.5,9.2-12.9,13.6c-11.6,11.6-23.3,23.2-34.9,34.8c-40.3,40.3-80.7,80.7-121,121.1c-5.2,5.2-5.2,5.3-10.4,0.2
			C407.2,702.9,350.3,646.1,293.6,589c-12.9-13-25.2-26.6-36.9-40.7c-13.1-15.8-22.5-33.9-30.8-52.6c-8.3-18.7-14-38.2-17.7-58.3
			c-1.8-9.5-1.6-19.3-2.4-29c-0.3-3.8-1-7.6-1-11.3c-0.1-10.6-0.9-21.3,0.4-31.8c1.9-14.9,5-29.7,8.3-44.4
			C215.5,311.7,219,302.7,221.6,294.1z M282.8,309.9c-0.6,1-1.2,1.8-1.6,2.7c-5.8,15.4-10.3,31-12.9,47.4
			c-3.7,22.5-3.1,44.8,0.9,67.1c4.1,23.2,12,45.2,24.2,65.3c32.7,53.9,80.1,87.2,142.4,98.2c25.9,4.6,51.8,3.7,77.4-2
			c30.8-6.9,58.9-20.1,83.3-40.3c47.2-39,72.4-89.2,75.5-150.3c1-20.4-1.5-40.4-6.8-60.3c-6.6-24.7-17.3-47.1-32.5-67.6
			c-0.9-1.2-2.4-2.2-3.8-2.6c-19.5-5.7-35.3-16.5-47.3-32.9c-1-1.4-3.2-2.6-5-2.8c-11.4-0.8-22.4-3.1-32.6-8.4
			c-6.3-3.3-11.7-8.7-18.2-10.7c-6.6-2-14.2-1-21.3-1c-2.2,0-4.5,0.5-6.7,1.1c-7.9,2.2-15.8,4.9-23.8,6.8c-3.2,0.8-4.4,1.8-4.5,5.1
			c-0.6,17.4-6.1,33.1-16.7,47c-11.1,14.6-25.3,24.5-42.9,29.8c-1.9,0.6-4.9,2.4-4.9,3.7c-0.3,10.8,0,21.6-0.1,32.5
			c-0.1,8.1,0.6,16.3-1,24.1c-5.5,27.5-35.6,47-65.6,38.4c-21.8-6.3-38.3-27.2-38.4-50.2c0-9.6,1-19.2,1.3-28.8
			c0.1-1.7-0.7-4.6-1.9-5.1C294.2,313.8,288.7,312.1,282.8,309.9z M558.8,133.3c-2.7-21.2-14.5-34.9-34.8-39
			c-18.8-3.8-35.2,1.9-46.5,20.6c1.5-11.9,6.6-20.2,14.3-26.7c3.4-2.9,2.5-4.2-0.5-5.7c-5.2-2.5-10.3-5.2-15.8-7
			c-22-7.5-49,2-62.5,21.3c-2.8,4-1.8,6.1,1,9c5.9,5.9,9.9,12.9,12,21.7c-26.9-27.4-66.5-19.7-83.4,8.1c0.2-9.3,3.7-16.8,8.5-23.7
			c1.5-2.2,1.9-3.9-0.5-5.5c-6.3-4.1-12.2-9.5-19.2-11.9c-20.4-7.2-39.2-3-55.4,11.4c-6.1,5.5-10.9,12.1-13.1,20.3
			c15.2,5.5,29.5,16.4,32.2,24.5c-25.4-12.8-54.7-7.5-73.8,12.4c-17.9,18.7-22.1,47.8-9.1,71.9c11.8,21.8,35.8,33.6,55.6,31.5
			c1-9.6,2.1-19.1,3.1-28.7c0.7,0,1.3-0.1,2-0.1c1.2,15.6,7.3,28.5,19.7,38c12.4,9.4,26.6,11.8,42,8.9c0,22.2-0.1,43.7,0,65.1
			c0,10.8,7.3,17.6,18.4,17.5c10.9,0,17.7-6.8,17.8-17.6c0-24.8,0-49.7,0-74.5c0-1.8,0-3.6,0-5.9c2.4,0.5,4.3,1.3,6.3,1.3
			c6.9,0,14.2,1,20.8-0.5c30.9-7.2,48.9-43.9,31.1-73.5c-0.7-1.1-0.7-3.1-0.2-4.3c1.7-3.4,3.8-6.5,5.9-9.8c0.6,0.1,1.2,0.3,1.8,0.5
			c20.3,7.5,39.6,6.4,57.5-6.8c1-0.7,2.9-0.9,4.1-0.5c11.7,4.9,23.2,4.8,34.7-0.4c2.8-1.3,4.2-0.7,6.3,2.1
			c7.1,9.4,16.3,16,28.1,19.1c10.5,2.8,20.4,1.9,30.3-1.4c2.5-0.8,3.6-0.3,4.2,2.3c0.7,3,1.7,6,2.9,8.9c12.4,29.7,50,39.1,75,20.9
			c22.1-16.1,28.3-43.2,14.6-66.8c-9.8-16.9-25.4-25.4-45.4-24.8c-2.9,0.1-4.2,1.1-5.1,4.1c-1.6,6-3.4,12.1-6.3,17.6
			c-2.6,4.8-6.9,8.7-10.5,13c-1-1.3-1.1-1.9-0.9-2.3c6.4-13,6.1-26.2,0.5-39.4c-5-11.9-13.4-20.6-24.8-26.4c-13.9-7-28-6.8-42.3-0.9
			c-2.2,0.9-3.1,2-1.9,4.5C561.8,114.5,561.3,123.8,558.8,133.3z M718,481.6c3.4-1.6,6.2-2.6,8.7-4.1c15.4-9.2,30.4-18.9,46.1-27.5
			c9.7-5.3,12.8-12.6,12.4-23.1c-0.8-20.8-0.8-41.6-1.3-62.3c-0.3-15.8-0.4-31.6-1.2-47.4c-0.7-12.8-4.7-16.3-17.4-16.5
			c-11.8-0.2-23.6-0.1-35.5-0.1c-3.6,0-7.2,0-11.2,0C739.4,361,738.9,421,718,481.6z"/>
		<path fill="#E4B82F" d="M282.8,309.9c5.9,2.2,11.4,4,16.6,6.4c1.2,0.5,1.9,3.4,1.9,5.1c-0.3,9.6-1.3,19.2-1.3,28.8
			c0.1,23,16.6,44,38.4,50.2c30,8.6,60.1-10.9,65.6-38.4c1.6-7.8,0.9-16.1,1-24.1c0.1-10.8-0.3-21.7,0.1-32.5c0-1.3,3-3.1,4.9-3.7
			c17.6-5.2,31.9-15.2,42.9-29.8c10.5-13.9,16.1-29.6,16.7-47c0.1-3.4,1.3-4.3,4.5-5.1c8-1.9,15.8-4.6,23.8-6.8
			c2.2-0.6,4.4-1.2,6.7-1.1c7.2,0.1,14.7-1,21.3,1c6.6,2,12,7.4,18.2,10.7c10.1,5.3,21.2,7.5,32.6,8.4c1.7,0.1,3.9,1.4,5,2.8
			c12,16.4,27.8,27.2,47.3,32.9c1.4,0.4,2.9,1.4,3.8,2.6c15.2,20.4,25.9,42.9,32.5,67.6c5.3,19.8,7.8,39.9,6.8,60.3
			c-3.1,61.1-28.3,111.3-75.5,150.3c-24.4,20.2-52.5,33.4-83.3,40.3c-25.6,5.7-51.5,6.6-77.4,2c-62.3-11.1-109.7-44.3-142.4-98.2
			c-12.2-20.1-20.1-42.2-24.2-65.3c-4-22.2-4.6-44.5-0.9-67.1c2.7-16.3,7.1-32,12.9-47.4C281.5,311.6,282.2,310.8,282.8,309.9z"/>
		<path fill="#FFFFFF" d="M558.8,133.3c2.4-9.5,3-18.8-1.2-27.8c-1.2-2.5-0.3-3.6,1.9-4.5c14.2-5.9,28.4-6.1,42.3,0.9
			c11.4,5.8,19.8,14.5,24.8,26.4c5.6,13.2,5.9,26.3-0.5,39.4c-0.2,0.4-0.1,1,0.9,2.3c3.6-4.3,7.9-8.2,10.5-13
			c2.9-5.4,4.7-11.6,6.3-17.6c0.8-3,2.2-4,5.1-4.1c20-0.6,35.5,7.9,45.4,24.8c13.7,23.6,7.5,50.7-14.6,66.8
			c-25.1,18.2-62.6,8.9-75-20.9c-1.2-2.9-2.2-5.8-2.9-8.9c-0.6-2.6-1.6-3.1-4.2-2.3c-10,3.3-19.9,4.1-30.3,1.4
			c-11.8-3.1-21-9.7-28.1-19.1c-2.1-2.8-3.5-3.3-6.3-2.1c-11.5,5.2-23,5.3-34.7,0.4c-1.1-0.5-3.1-0.2-4.1,0.5
			c-17.9,13.3-37.1,14.3-57.5,6.8c-0.6-0.2-1.3-0.3-1.8-0.5c-2.1,3.4-4.2,6.5-5.9,9.8c-0.6,1.1-0.5,3.2,0.2,4.3
			c17.8,29.6-0.2,66.3-31.1,73.5c-6.6,1.5-13.8,0.5-20.8,0.5c-1.9,0-3.8-0.8-6.3-1.3c0,2.3,0,4.1,0,5.9c0,24.8,0,49.7,0,74.5
			c0,10.8-6.8,17.5-17.8,17.6c-11.1,0-18.4-6.7-18.4-17.5c-0.1-21.5,0-42.9,0-65.1c-15.4,2.9-29.6,0.5-42-8.9
			c-12.4-9.5-18.5-22.4-19.7-38c-0.7,0-1.3,0.1-2,0.1c-1,9.5-2.1,19.1-3.1,28.7c-19.7,2.1-43.8-9.7-55.6-31.5
			c-13-24.1-8.9-53.2,9.1-71.9c19.1-19.9,48.4-25.2,73.8-12.4c-2.7-8.1-17-19-32.2-24.5c2.2-8.2,7-14.8,13.1-20.3
			c16.2-14.5,35-18.6,55.4-11.4c6.9,2.4,12.8,7.8,19.2,11.9c2.3,1.5,2,3.3,0.5,5.5c-4.8,6.9-8.4,14.4-8.5,23.7
			c17-27.7,56.5-35.5,83.4-8.1c-2.1-8.8-6.1-15.8-12-21.7c-2.9-2.9-3.8-5-1-9c13.5-19.3,40.5-28.8,62.5-21.3
			c5.4,1.8,10.6,4.5,15.8,7c3,1.5,3.9,2.8,0.5,5.7c-7.7,6.5-12.8,14.9-14.3,26.7c11.3-18.7,27.7-24.4,46.5-20.6
			C544.3,98.5,556.1,112.1,558.8,133.3z"/>
	</g>
	<circle fill="#FFFFFF" cx="500" cy="387" r="14"/>
	<circle fill="#FFFFFF" cx="446" cy="378" r="4"/>
	<circle fill="#FFFFFF" cx="514.5" cy="435.5" r="5.5"/>
	<circle fill="#FFFFFF" cx="461.5" cy="429.5" r="24.5"/>
	<circle fill="#FFFFFF" cx="423" cy="468" r="14"/>
	<circle fill="#FFFFFF" cx="495" cy="472" r="14"/>
	<circle fill="#FFFFFF" cx="461.5" cy="497.5" r="11.5"/>
	<circle fill="#FFFFFF" cx="430.5" cy="511.5" r="7.5"/>
	<circle fill="#FFFFFF" cx="450" cy="556" r="5"/>
	<circle fill="#FFFFFF" cx="469" cy="527" r="5"/>
	<circle fill="#FFFFFF" cx="445" cy="531" r="5"/>
</g>
</svg>
